<?xml version="1.0" encoding="UTF-8" standalone="no"?>
<!-- Created with Inkscape (http://www.inkscape.org/) -->

<svg
   width="28"
   height="28"
   viewBox="0 0 28 28"
   version="1.1"
   id="svg1"
   xml:space="preserve"
   inkscape:export-filename="show.svg"
   inkscape:export-xdpi="96"
   inkscape:export-ydpi="96"
   sodipodi:docname="icon1.svg"
   xmlns:inkscape="http://www.inkscape.org/namespaces/inkscape"
   xmlns:sodipodi="http://sodipodi.sourceforge.net/DTD/sodipodi-0.dtd"
   xmlns="http://www.w3.org/2000/svg"
   xmlns:svg="http://www.w3.org/2000/svg"><sodipodi:namedview
     id="namedview1"
     pagecolor="#505050"
     bordercolor="#eeeeee"
     borderopacity="1"
     inkscape:showpageshadow="0"
     inkscape:pageopacity="0"
     inkscape:pagecheckerboard="0"
     inkscape:deskcolor="#505050"
     inkscape:document-units="px" /><defs
     id="defs1" /><g
     inkscape:label="Layer 1"
     inkscape:groupmode="layer"
     id="layer1"><path
       style="fill:#000000;stroke-width:1.0901"
       d="M 19.429801,20.992122 C 12.069992,13.084854 2.0082361,2.3048584 1.6746291,1.9695323 1.4910891,1.7850459 1.5318561,1.6002929 1.9028361,0.93536684 2.1512551,0.49011321 2.4166071,0.12221714 2.4925071,0.11781996 2.6092731,0.11110333 26.285787,25.304044 26.925897,26.116165 c 0.185073,0.234806 0.14599,0.407507 -0.241894,1.068902 -0.254448,0.433868 -0.535201,0.781751 -0.623895,0.773075 -0.08869,-0.0086 -3.072333,-3.143385 -6.630307,-6.96602 z m -40.619634,4.098388 c -3.564434,-0.615997 -6.976869,-2.952098 -9.416567,-6.446436 -1.142522,-1.636416 -2.436234,-4.080317 -2.436234,-4.602197 0,-0.52188 1.293712,-2.965782 2.436234,-4.6021972 4.6911,-6.7189844 12.075603,-8.49667856 18.28601,-4.4020487 2.4465691,1.6130665 4.7739221,4.3777341 6.2704761,7.4487139 l 0.73883,1.516102 -0.351474,0.787623 c -1.114914,2.498433 -3.097583,5.315724 -4.8531701,6.896153 -2.022806,1.820988 -4.431411,2.993424 -7.041466,3.427576 -1.542922,0.256648 -2.030906,0.253519 -3.632639,-0.02329 z m 4.482083,-3.435793 c 1.481408,-0.957866 2.267601,-1.99975 2.971809,-3.938322 0.569923,-1.568911 0.609239,-1.806032 0.609239,-3.674518 0,-1.868486 -0.03932,-2.105607 -0.609239,-3.674518 -0.701969,-1.9324062 -1.490296,-2.9803051 -2.954473,-3.9272867 -5.193871,-3.3592195 -10.594738,4.2670317 -8.044408,11.3590397 1.438815,4.00109 5.089863,5.754779 8.027072,3.855605 z m -3.756402,-2.561735 c -1.600668,-0.704609 -2.650571,-2.701302 -2.655977,-5.051105 -0.0096,-4.1666521 3.36435,-6.7165298 5.94309,-4.4915361 1.880092,1.6221831 2.401743,4.9118521 1.173072,7.3976831 -0.991757,2.006509 -2.799623,2.875933 -4.460185,2.144958 z m 32.897571,5.988242 C 9.4589391,24.644737 5.9746561,22.479061 3.6957401,19.650273 2.4722981,18.131628 0.72485414,15.121263 0.56557714,14.257865 0.39738814,13.346144 2.6082701,9.4753584 4.4078951,7.5307806 l 0.602026,-0.6505157 1.788621,1.9157341 c 1.4951,1.601352 1.772343,1.990952 1.689426,2.374092 -0.05455,0.252097 -0.180288,1.016247 -0.2794,1.698112 -0.340648,2.343558 0.359327,5.158288 1.754986,7.057122 1.9479809,2.650285 4.8780349,3.252703 7.2418939,1.488931 l 0.79153,-0.590592 1.257268,1.314792 c 1.244128,1.301052 1.253171,1.317714 0.865285,1.59422 -0.940216,0.670236 -5.038965,1.729954 -6.107446,1.57906 -0.114364,-0.01616 -0.824764,-0.119882 -1.578666,-0.230512 z m 9.353231,-5.787839 c -0.931293,-1.01507 -1.690592,-1.920798 -1.687334,-2.012727 0.0033,-0.09193 0.102566,-0.757488 0.220687,-1.479014 0.285204,-1.742155 0.127987,-3.605965 -0.443948,-5.263001 C 19.294043,8.8524119 18.702574,7.9063257 17.666863,7.0049275 15.791496,5.3727579 13.693877,5.1916666 11.633064,6.4840202 L 10.527537,7.1773051 9.3088831,5.894685 C 8.1226991,4.646237 8.1002091,4.6049498 8.4647791,4.345066 9.1444311,3.8605739 11.131518,3.2085212 12.733145,2.9444238 c 5.545653,-0.914443 11.500767,2.898325 14.713828,9.4205432 l 0.795172,1.614125 -0.350753,0.799301 c -0.683488,1.557536 -1.654149,3.140326 -2.917254,4.756958 -0.703505,0.900408 -1.327504,1.629569 -1.386665,1.62036 -0.05916,-0.0091 -0.869532,-0.847255 -1.800823,-1.862326 z M 13.137623,19.10417 c -0.366591,-0.156041 -0.917289,-0.543934 -1.223776,-0.861983 -0.99092,-1.028304 -1.789459,-3.709217 -1.462743,-4.910831 0.121313,-0.446174 0.313608,-0.283726 2.787513,2.35485 1.461466,1.558745 2.679347,2.92444 2.706405,3.034877 0.05492,0.224126 -1.191297,0.704258 -1.768809,0.681476 -0.204634,-0.0081 -0.672,-0.142347 -1.03859,-0.298389 z m 2.198523,-6.754917 c -1.463458,-1.569557 -2.68367,-2.9360076 -2.711579,-3.036558 -0.08817,-0.3176535 1.309335,-0.6985519 2.098174,-0.5718675 1.338896,0.2150225 2.456874,1.2625065 3.065001,2.8717405 0.347646,0.919943 0.585724,3.278774 0.350575,3.473428 -0.07774,0.06434 -1.338713,-1.167185 -2.802171,-2.736743 z"
       id="path1" /></g></svg>
