<?xml version="1.0" encoding="UTF-8" standalone="no"?>
<!-- Created with Inkscape (http://www.inkscape.org/) -->

<svg
   width="150mm"
   height="100mm"
   viewBox="0 0 150 100"
   version="1.1"
   id="svg1"
   xml:space="preserve"
   xmlns:inkscape="http://www.inkscape.org/namespaces/inkscape"
   xmlns:sodipodi="http://sodipodi.sourceforge.net/DTD/sodipodi-0.dtd"
   xmlns="http://www.w3.org/2000/svg"
   xmlns:svg="http://www.w3.org/2000/svg"><sodipodi:namedview
     id="namedview1"
     pagecolor="#505050"
     bordercolor="#eeeeee"
     borderopacity="1"
     inkscape:showpageshadow="0"
     inkscape:pageopacity="0"
     inkscape:pagecheckerboard="0"
     inkscape:deskcolor="#505050"
     inkscape:document-units="mm" /><defs
     id="defs1" /><g
     inkscape:label="Layer 1"
     inkscape:groupmode="layer"
     id="layer1"><path
       style="fill:#1a1a1a;stroke-width:1.07933"
       d="m 45.430642,111.7887 c 4.944212,-0.82581 9.471215,-1.72171 10.060007,-1.99088 0.588791,-0.26918 1.07053,0.002 1.07053,0.6039 0,2.33738 -2.639181,3.02387 -11.365089,2.95629 l -8.754925,-0.0679 z m 0.711849,-19.395923 c -4.284533,-1.537873 -6.224255,-5.198282 -5.447144,-10.279217 0.611828,-4.000258 0.413571,-4.79195 -1.524984,-6.089675 -1.509681,-1.010631 -2.151776,-2.331502 -1.991129,-4.096006 0.157624,-1.7313 -0.746646,-3.654408 -2.697509,-5.736777 -1.61404,-1.722842 -2.934618,-3.739817 -2.934618,-4.482169 0,-2.344199 -6.838812,-8.393228 -10.072031,-8.908856 -1.881692,-0.300091 -3.497368,-1.311741 -4.327374,-2.709573 -0.728494,-1.226875 -1.946599,-2.520186 -2.706897,-2.874026 -0.760298,-0.353839 -1.382361,-1.168385 -1.382361,-1.810104 0,-0.641719 -0.994171,-1.166761 -2.20927,-1.166761 -1.2150974,0 -2.5006648,-0.561713 -2.8568151,-1.248254 C 7.524471,42.089427 6.4934871,41.88142 4.2763649,42.241633 1.2525326,42.732911 1.2172351,42.695498 1.8487616,39.668554 c 0.3524646,-1.689382 1.2742311,-4.003862 2.0483681,-5.143289 1.4772665,-2.174339 9.6018063,-7.98445 11.1650143,-7.98445 0.500425,0 1.460077,-0.893271 2.13256,-1.985046 1.806105,-2.932205 9.253261,-6.574609 15.731945,-7.694494 6.586512,-1.138522 9.092101,-2.528683 11.161782,-6.19282 1.649369,-2.920024 3.075857,-3.2609518 5.656619,-1.3519232 1.107918,0.8195442 2.922653,1.1494182 5.051699,0.9182732 4.289537,-0.4657024 10.1121,1.344368 11.002896,3.42049 0.382925,0.892457 1.624839,1.622649 2.75981,1.622649 1.13497,0 2.587427,0.724042 3.227681,1.608981 2.512935,3.473305 6.52541,0.904073 6.52541,-4.178292 0,-1.839632 -0.707741,-3.002038 -2.266147,-3.721959 C 74.760873,8.3928135 74.040173,7.4387632 74.380913,6.7819299 75.417632,4.7834801 68.392654,5.3974264 63.798256,7.7067983 61.519313,8.8523075 59.409662,9.6082654 59.11014,9.3867043 57.902894,8.4936859 68.788671,4.6569416 72.981973,4.4975095 76.199664,4.3751714 77.969097,3.8094358 79.340554,2.4645003 80.862961,0.97153235 81.36475,0.83993027 81.864167,1.8026401 c 0.756872,1.4589966 9.29938,4.6259052 12.478048,4.6259052 1.260658,0 3.826336,0.9549499 5.701505,2.1221122 1.87518,1.1671607 4.98949,2.5247405 6.92071,3.0168405 3.79661,0.967432 12.90105,6.123918 10.81257,6.123918 -0.69915,0 -1.57365,-0.36202 -1.94334,-0.804491 -0.36968,-0.442469 -2.72325,-0.798947 -5.23013,-0.792172 -4.95364,0.01339 -8.30441,1.031964 -6.34365,1.928361 1.47442,0.674064 12.69867,0.79929 14.10285,0.157343 0.57807,-0.264277 2.32018,0.0065 3.87136,0.60185 2.52381,0.968557 1.70673,1.067182 -7.77168,0.938073 -9.49286,-0.129307 -10.25343,-0.03714 -7.3293,0.88832 1.79449,0.56793 2.51514,1.048927 1.60145,1.068884 -0.91369,0.01996 -2.64412,-0.472954 -3.8454,-1.095361 -2.63369,-1.364554 -15.07263,-1.24545 -18.620245,0.178291 -1.306542,0.524347 -3.484397,0.953357 -4.83968,0.953357 -1.537015,0 -2.075412,0.282135 -1.430958,0.749862 1.515359,1.09981 14.955152,1.169646 24.959693,0.129697 13.87893,-1.442683 22.79659,-0.0898 31.68803,4.807355 3.0725,1.692251 5.96505,2.824579 6.42788,2.516283 0.46282,-0.308294 0.48946,-0.108014 0.0591,0.445078 -0.43029,0.553087 -0.36073,1.005614 0.15457,1.005614 1.48144,0 4.82635,7.686583 4.43747,10.197272 -0.3286,2.121594 -0.63946,2.255118 -4.68593,2.012804 -2.38368,-0.142741 -4.95306,-0.639595 -5.70973,-1.104118 -0.97236,-0.596936 -1.85411,-0.550926 -3.00711,0.156913 -1.2848,0.788755 -1.97081,0.79311 -3.22931,0.0205 -1.3347,-0.819381 -1.88616,-0.448216 -3.34721,2.252883 -0.96209,1.778638 -2.44534,3.431474 -3.2961,3.672967 -0.94072,0.267029 -1.54684,1.57302 -1.54684,3.332936 0,1.591621 -0.561,3.669246 -1.24666,4.616945 -0.68566,0.9477 -1.20811,2.725857 -1.16101,3.951459 0.0472,1.225602 -0.24836,2.193645 -0.65658,2.151206 -4.0047,-0.416317 -5.25397,0.303674 -6.4983,3.74513 -0.72223,1.997465 -1.33048,4.622118 -1.35167,5.832555 -0.0212,1.21045 -0.73797,3.105861 -1.59282,4.212034 -0.85486,1.106172 -1.57162,3.56144 -1.59282,5.456152 -0.0491,4.387157 -2.43077,8.623471 -5.54028,9.854475 -3.2579,1.289745 -13.512501,0.600289 -16.017967,-1.076951 -1.693085,-1.133411 -2.965196,-1.205898 -8.853241,-0.504473 -5.909079,0.703936 -7.157086,0.631001 -8.874423,-0.518642 -1.876307,-1.256065 -2.396716,-1.184415 -8.520156,1.172984 -6.682886,2.572784 -10.868238,3.020775 -14.854442,1.589988 z m 14.204586,-2.469862 c 3.899382,-1.422372 7.089786,-2.875675 7.089786,-3.229544 0,-0.353871 -2.922479,0.447874 -6.494397,1.781653 -3.571918,1.333779 -7.364812,2.40055 -8.428655,2.370606 -1.426139,-0.04012 -1.220012,-0.282909 0.784663,-0.924135 1.495406,-0.478336 5.03459,-1.720908 7.864853,-2.761276 2.830262,-1.04037 6.378454,-1.891572 7.88487,-1.891572 1.506416,0 2.738939,-0.362022 2.738939,-0.804497 0,-1.67301 -6.460847,-0.70115 -13.370535,2.011232 -3.945108,1.548637 -8.161593,2.815718 -9.369966,2.815718 -2.929144,0 -4.448708,-2.317676 -4.448708,-6.785287 0,-4.659599 -1.704131,-4.778195 -2.63561,-0.183425 -0.891243,4.396306 0.593059,7.340146 4.488749,8.902608 4.351127,1.745142 5.953943,1.594952 13.896011,-1.302081 z m 42.055543,0.912409 c 2.90217,-1.148922 5.26501,-5.491599 5.31281,-9.764415 0.0212,-1.894712 0.73797,-4.349979 1.59283,-5.456152 0.85484,-1.106184 1.57161,-2.722344 1.59281,-3.591475 0.0336,-1.379979 -0.15544,-1.430959 -1.49197,-0.402249 -2.02215,1.556433 -4.99491,8.259226 -4.99491,11.262255 0,1.31194 -0.97003,3.102903 -2.15563,3.97991 -2.354246,1.741461 -3.563969,1.582479 -11.902389,-1.564228 -2.389197,-0.901621 -5.954058,-1.608193 -7.921917,-1.570155 -3.558178,0.06878 -3.561666,0.07279 -0.632092,0.726015 1.620208,0.361276 4.526685,1.48954 6.45884,2.507244 1.932154,1.017717 5.74529,2.295666 8.473636,2.839897 l 4.960632,0.989514 -3.865461,0.05434 c -2.521756,0.03542 -5.653861,-0.784665 -9.010208,-2.359176 -6.167794,-2.893399 -7.449389,-3.102812 -3.249413,-0.530955 6.257415,3.831726 11.962234,4.807702 16.832432,2.879676 z M 73.962273,88.084365 c -0.744647,-0.663707 -2.332714,-1.206746 -3.52904,-1.206746 -1.810143,0 -1.947948,0.202501 -0.821233,1.206746 0.744646,0.663697 2.332713,1.206735 3.529039,1.206735 1.810143,0 1.947948,-0.2025 0.821234,-1.206735 z m 8.049872,0.530176 c 0.614662,-0.735679 -5.077303,-4.150391 -6.918266,-4.150391 -2.019412,0 -1.196333,2.288707 1.285521,3.574589 2.681876,1.389528 4.774176,1.603412 5.632745,0.575802 z M 52.917289,87.452482 c 2.310956,-0.965911 2.290475,-1.016352 -1.788052,-4.403631 l -4.125787,-3.426532 -0.417935,3.241778 c -0.669814,5.195495 1.360017,6.666441 6.331774,4.588385 z M 101.8704,85.872009 c 0.46601,-0.553081 1.12358,-2.846659 1.46126,-5.096836 l 0.61397,-4.091214 -5.099125,4.091214 c -4.994913,4.007607 -5.051248,4.111196 -2.756534,5.068336 3.036367,1.266475 4.730329,1.274831 5.780429,0.02854 z M 56.289287,84.399711 c -1.046785,-0.450994 -1.903244,-1.184495 -1.903244,-1.629997 0,-0.445503 1.453159,-0.175021 3.229244,0.601058 5.237801,2.288705 5.084076,0.60735 -0.336391,-3.679244 -2.777021,-2.196113 -5.878125,-5.278862 -6.891343,-6.850564 -1.013218,-1.571704 -2.240976,-2.857646 -2.728352,-2.857646 -1.254258,0 -1.098779,2.225337 0.289546,4.14425 0.646626,0.893744 0.929629,1.807001 0.628897,2.02946 -0.300734,0.222458 -1.299603,-0.623103 -2.219709,-1.879007 -2.108457,-2.877968 -2.246986,-1.887203 -0.234334,1.675968 1.755737,3.108337 9.008509,9.326455 10.836022,9.290195 0.6781,-0.01341 0.376449,-0.393468 -0.670336,-0.844473 z m 39.926764,-3.234567 c 2.112442,-1.371988 3.555555,-2.835929 3.20692,-3.253207 -0.790725,-0.946399 1.653229,-3.231049 2.864159,-2.677451 0.48906,0.223582 1.24334,-0.01731 1.67616,-0.535403 0.49151,-0.588264 0.31555,-0.726394 -0.46862,-0.367892 -1.84865,0.845149 -1.52708,-0.379079 0.5443,-2.072175 1.13541,-0.928068 1.32205,-1.471209 0.50551,-1.471209 -0.91046,0 -0.98297,-0.430431 -0.24444,-1.451204 0.57747,-0.798164 0.66405,-1.913078 0.19241,-2.477588 -0.59301,-0.709766 -1.75182,0.102397 -3.75654,2.632803 -1.594445,2.012546 -5.63177,5.842622 -8.971833,8.511269 -3.340065,2.668646 -5.37133,4.852079 -4.513924,4.852079 0.857406,0 2.706539,-0.903615 4.109184,-2.008045 1.402647,-1.10443 2.794968,-1.827052 3.094049,-1.605819 0.299082,0.221243 -0.603834,1.305875 -2.00648,2.410306 -3.625518,2.854695 -0.817154,2.492238 3.769145,-0.486464 z m -13.852452,0.820501 c 4.118083,-0.999076 16.612745,-10.718758 16.612745,-12.923166 0,-0.820949 -0.194125,-1.492633 -0.431389,-1.492633 -0.237265,0 -3.994989,2.718567 -8.350498,6.041258 C 81.78671,80.025141 76.854121,81.84387 70.615335,80.830257 66.434262,80.15097 54.699153,72.75026 52.149755,69.185014 c -3.079908,-4.307153 -2.590815,-0.648752 0.520448,3.892933 1.448939,2.115108 4.509655,5.098831 6.80159,6.630501 3.834457,2.562525 4.774618,2.798557 11.775846,2.956473 4.18478,0.09434 9.186962,-0.211293 11.11596,-0.679276 z M 82.22775,77.32091 C 91.933519,72.020634 98.020016,65.686298 99.945249,58.881972 103.6944,45.6314 99.39768,39.875495 84.294172,37.915711 70.856621,36.172095 69.018783,36.213366 65.935829,38.327972 c -1.567081,1.074865 -2.852334,2.211167 -2.856116,2.525112 -0.0038,0.313946 -1.471999,1.18751 -3.262705,1.941253 -1.790706,0.753743 -3.255829,1.962466 -3.255829,2.68605 0,1.10011 1.052377,1.270961 6.424656,1.043032 3.53356,-0.149919 6.196408,-10e-4 5.91744,0.33079 -0.278967,0.331851 -3.561587,0.603367 -7.294709,0.603367 -3.829073,0 -7.356335,0.420778 -8.092578,0.965388 -2.279152,1.685924 -1.40688,2.339006 1.343544,1.005931 1.477337,-0.716036 4.002322,-1.133308 5.709733,-0.943575 2.987902,0.332026 2.978114,0.343042 -0.409304,0.460699 -5.515198,0.191561 -5.018169,1.327275 0.580862,1.327275 3.388774,0 4.979035,0.323178 4.805842,0.976661 -0.149585,0.564404 0.424255,0.78276 1.35946,0.517296 0.890069,-0.25265 1.618306,-0.07257 1.618306,0.40019 0,0.472755 -2.079975,1.275469 -4.622166,1.783808 -4.121391,0.824119 -5.128194,0.726146 -9.292823,-0.904303 -2.947035,-1.153763 -4.46112,-2.232476 -4.102857,-2.92309 0.446292,-0.860304 0.106239,-0.911805 -1.589063,-0.240662 -1.8127,0.717618 -2.051779,1.394531 -1.4983,4.242192 1.967769,10.124217 5.119373,14.866124 13.858159,20.850998 6.097355,4.175865 7.155469,4.593992 11.706038,4.625827 3.851898,0.02694 5.978532,-0.497858 9.244331,-2.281301 z M 66.080928,73.061565 c -0.749642,-0.352071 2.266773,-0.645676 6.703145,-0.652451 4.436374,-0.0069 7.777497,0.201182 7.42472,0.462137 -1.008415,0.74594 -12.61201,0.902251 -14.127865,0.190314 z m -4.081907,-2.202474 c 0,-0.332193 4.2823,-0.673881 9.516223,-0.759315 5.233923,-0.08543 10.372683,-0.351995 11.419467,-0.592355 1.046785,-0.24036 1.903245,-0.0506 1.903245,0.421685 0,0.991649 0.386645,0.952855 -12.778927,1.282261 -5.533005,0.13844 -10.060008,-0.02006 -10.060008,-0.352276 z m 7.180563,-2.740424 c 2.195087,-0.90807 7.93746,-0.951466 9.122781,-0.06895 0.580534,0.432234 -1.392851,0.72686 -4.86846,0.72686 -3.599808,0 -5.233854,-0.2527 -4.254321,-0.657916 z m -4.34002,-3.621216 c -0.302793,-0.362408 0.944922,-0.496567 2.772698,-0.298129 2.84414,0.30878 3.237001,0.142822 2.725102,-1.151182 -0.328971,-0.831587 -0.16529,-4.408141 0.363733,-7.947901 l 0.96186,-6.435927 -0.436768,7.123301 c -0.41389,6.750177 -0.313995,7.147051 1.907093,7.576698 2.249889,0.435218 2.258989,0.477964 0.226966,1.066185 -2.882351,0.834371 -7.846912,0.873382 -8.520684,0.06695 z M 78.312546,64.07274 c 1.495407,-0.582953 2.94945,-0.919953 3.231209,-0.748889 0.76485,0.464365 -2.443647,1.807816 -4.318777,1.808345 -0.899164,2.52e-4 -0.411037,-0.475255 1.087568,-1.059456 z m 0.375295,-10.61618 c -0.354205,-0.682787 -0.401001,-1.421188 -0.103992,-1.640889 0.297009,-0.219702 0.801057,0.338942 1.120107,1.241432 0.677718,1.917044 -0.07528,2.213067 -1.016115,0.399457 z m 4.194571,-0.135883 c -2.080577,-0.294448 -2.415353,-0.747853 -1.998121,-2.70616 0.285325,-1.339194 0.01046,-2.352451 -0.638153,-2.352451 -0.626648,0 0.104998,-0.72404 1.625878,-1.608981 3.19954,-1.861684 7.359587,-1.969211 12.754055,-0.32966 2.09357,0.636302 2.582975,0.94769 1.087569,0.691973 -7.540872,-1.289503 -11.529592,-1.31594 -12.910015,-0.08557 -1.239108,1.104419 -0.947614,1.197377 2.468739,0.78728 2.673735,-0.320953 4.745078,-0.04268 6.686508,0.89829 2.233169,1.082373 3.139342,1.162806 4.397618,0.39034 0.871668,-0.535126 1.840332,-0.783971 2.152586,-0.552993 0.312254,0.230979 -1.508906,1.54964 -4.047025,2.930358 -4.443647,2.417312 -6.160225,2.70454 -11.579639,1.937571 z m 8.01232,-1.1261 c 0.939792,-1.124824 -1.416589,-2.265927 -4.969208,-2.406393 -2.528701,-0.09998 -2.490657,-0.150467 0.543785,-0.721626 3.009963,-0.566553 3.052086,-0.620543 0.543784,-0.696989 -1.495406,-0.04557 -3.45303,0.26807 -4.350273,0.696989 -0.897244,0.428919 -1.076676,0.785396 -0.398737,0.792171 0.677939,0.0068 1.488581,0.736361 1.801427,1.621302 0.625665,1.769803 5.519716,2.281871 6.829222,0.714546 z m -46.296805,25.08394 c 0,-0.412338 -1.590569,-1.547457 -3.534597,-2.522493 l -3.534598,-1.772781 3.262706,2.47651 c 3.683643,2.796012 3.806489,2.854707 3.806489,1.818764 z m 3.262705,-10.16616 c 0,-0.345109 -1.223514,0.222783 -2.71892,1.26198 -1.495407,1.039197 -2.718922,2.397157 -2.718922,3.01768 0,0.631449 1.197193,0.07578 2.718922,-1.261984 1.495406,-1.314614 2.71892,-2.672569 2.71892,-3.017676 z m -3.083815,0.02889 c 2.714678,-2.414017 3.801209,-4.064945 3.407753,-5.177903 -0.317695,-0.898656 -0.937577,-1.633918 -1.377518,-1.633918 -1.8672,0 -8.206625,3.795601 -8.551425,5.119991 -0.474793,1.823692 0.687951,5.355026 1.740854,5.287103 0.437227,-0.0282 2.588378,-1.646081 4.780336,-3.595273 z m 67.250353,-0.492376 c 0,-0.840647 -1.88773,-3.05895 -4.19496,-4.929562 -2.30723,-1.87061 -4.43613,-3.944142 -4.73087,-4.607848 -0.31872,-0.717668 -0.86197,-0.131901 -1.34043,1.445343 -0.6881,2.268334 -0.21453,3.285739 3.2729,7.031357 3.2037,3.440875 4.38985,4.187485 5.53539,3.484221 0.80189,-0.492283 1.45797,-1.582863 1.45797,-2.423511 z m -10.69213,-2.830277 c -0.89725,-1.185987 -1.09645,-1.141162 -1.755594,0.395047 -0.978661,2.280902 0.416693,4.050274 1.776584,2.252782 0.59974,-0.79274 0.59145,-1.838305 -0.021,-2.647829 z m -62.39816,-0.87457 c 1.763749,-1.216792 4.331218,-2.781361 5.705486,-3.47682 1.467759,-0.742773 2.171081,-1.656557 1.704677,-2.214789 -0.919795,-1.100889 -11.535821,5.246942 -11.536698,6.898345 -7.61e-4,1.433521 0.520354,1.281129 4.126535,-1.206736 z m 73.27914,-0.74459 c -0.59122,-0.817169 -2.18322,-2.205753 -3.53776,-3.085742 -2.61369,-1.697994 -2.10222,-0.715811 1.57054,3.015947 2.36627,2.404265 3.6902,2.451236 1.96722,0.06979 z M 42.410497,56.720178 c 0.775401,-0.691117 1.095376,-1.489174 0.711057,-1.773462 -0.38432,-0.284287 -0.698764,-0.155898 -0.698764,0.285309 0,0.441208 -2.202325,1.972122 -4.894058,3.402033 -2.691731,1.429911 -4.894057,2.969784 -4.894057,3.421941 0,0.853717 7.304748,-3.133348 9.775822,-5.335821 z m 73.213143,1.396902 c -0.74303,-3.632801 -2.20708,-5.082029 -3.53199,-3.496256 -0.51288,0.613864 -1.71603,0.893716 -2.67363,0.621892 -2.68663,-0.762611 -2.07443,1.121112 1.18128,3.634834 4.14512,3.20044 5.78376,2.952422 5.02434,-0.76047 z m 6.11099,-6.27503 c 0.1529,-4.651302 -6.40872,-6.317175 -8.38282,-2.128242 -0.905,1.920369 -0.67799,2.510093 1.52496,3.961581 1.69388,1.116073 2.61612,2.629843 2.6689,4.380817 l 0.0807,2.675468 2.01382,-3.217963 c 1.10761,-1.769879 2.05012,-4.322126 2.09448,-5.671661 z m -85.837249,6.267424 c 0,-0.336035 -0.978812,-1.063144 -2.175138,-1.615799 -1.196324,-0.552654 -2.175136,-1.544788 -2.175136,-2.204744 0,-1.791554 4.096767,-1.449132 4.894058,0.409063 1.020193,2.377698 3.348737,1.955189 4.946117,-0.897463 1.224533,-2.186807 1.172012,-2.602278 -0.41184,-3.257938 -2.310001,-0.956261 -2.319943,-2.948132 -0.02408,-4.824713 0.985199,-0.805279 1.89373,-2.462879 2.018959,-3.683555 0.225799,-2.201021 0.169735,-2.220238 -6.765817,-2.319173 -3.846428,-0.05486 -7.544572,-0.507395 -8.218099,-1.005614 -2.542112,-1.880439 -2.929857,-0.791225 -0.811672,2.280062 2.663663,3.862209 2.784132,6.691531 0.411426,9.662723 -1.729741,2.166047 -1.687054,2.327824 1.35946,5.152172 2.786395,2.583196 6.951765,3.964298 6.951765,2.304979 z M 108.18475,53.4127 c 1.94711,0.361493 2.64554,0.0724 3.129,-1.295155 0.34232,-0.968289 0.073,-2.250193 -0.59846,-2.848676 -1.48562,-1.324127 -6.88792,-1.002484 -6.73612,0.401057 0.0598,0.553087 0.24881,2.363192 0.41999,4.022454 0.22476,2.17856 0.4457,2.494188 0.79511,1.135896 0.38753,-1.506439 0.98295,-1.788287 2.99048,-1.415576 z M 62.453855,53.4051 c 2.998745,-0.85121 1.981492,-2.729646 -1.478217,-2.729646 -3.343404,0 -5.015858,1.042821 -3.870675,2.413471 0.762379,0.912479 2.819733,1.034089 5.348892,0.316175 z M 26.59138,49.692 c 2.261978,-2.388856 2.127576,-4.513101 -0.48618,-7.684226 -3.906748,-4.739838 -2.275463,-7.464629 2.63735,-4.405254 2.210453,1.376522 2.220341,1.372046 0.444235,-0.201124 -1.587172,-1.405824 -1.63243,-1.931549 -0.358439,-4.16368 l 1.458097,-2.554698 -4.155508,-0.519331 c -3.120174,-0.38994 -5.292132,-0.0904 -8.717552,1.202267 -5.130816,1.93624 -14.7583564,8.671224 -13.5957816,9.510983 0.4164349,0.300803 2.5585113,-0.94865 4.7601711,-2.776562 3.9230385,-3.257072 10.4832995,-6.741239 12.6374355,-6.711764 0.598163,0.0081 -0.08358,0.680975 -1.514985,1.49509 -2.01429,1.145633 -2.443915,1.947756 -1.900717,3.548701 0.386009,1.13767 1.680029,2.298149 2.875599,2.57884 5.43773,1.276651 4.872533,7.646198 -0.802648,9.045537 -2.596384,0.640195 -2.648237,0.758331 -0.90036,2.051263 2.54857,1.885215 5.597912,1.71871 7.619283,-0.416042 z m 19.094116,-2.735175 c 0,-1.499625 -2.665398,-1.403228 -4.419066,0.159821 -1.177346,1.04937 -1.159712,1.388277 0.10225,1.965208 1.762675,0.80584 4.316816,-0.45148 4.316816,-2.125029 z m 4.50692,-1.168379 0.756343,-2.755569 -2.087847,1.899228 c -2.343719,2.131984 -2.786927,4.440907 -0.756343,3.940223 0.732328,-0.180572 1.67186,-1.568318 2.087847,-3.083882 z m 58.891174,1.447029 c 2.13636,0.720032 3.00037,0.639806 4.42015,-0.410429 1.49422,-1.1053 2.32002,-1.156872 5.38725,-0.336436 4.17833,1.117639 7.96962,1.234987 4.25567,0.131723 -1.41715,-0.420982 -3.48369,-2.376426 -4.83474,-4.574829 -2.21838,-3.609708 -2.3838,-3.707126 -2.76308,-1.627223 -0.48204,2.643352 -1.41798,2.796168 -3.3209,0.542216 -1.13401,-1.343207 -1.71798,-1.481078 -2.98324,-0.704328 -0.86525,0.531192 -2.91785,0.766511 -4.56131,0.522932 -2.96916,-0.440063 -2.98575,-0.417976 -2.61491,3.480057 0.34007,3.574571 0.55022,3.841165 2.36645,3.002138 1.47371,-0.680795 2.68535,-0.687525 4.64866,-0.02581 z M 21.541478,45.687697 c 2.022061,-1.49575 1.54175,-4.515745 -0.870055,-5.470537 -1.918736,-0.759597 -2.175137,-0.611808 -2.175137,1.253747 0,1.438267 -0.695867,2.249456 -2.175136,2.535606 -2.229761,0.431324 -2.731904,1.162069 -1.450091,2.110245 1.181694,0.874118 5.26364,0.611554 6.670419,-0.429061 z m 35.735206,-2.65482 c 4.517664,-3.341785 4.694333,-3.620209 2.297143,-3.620209 -3.638081,0 -6.113435,1.570511 -7.290971,4.625822 -0.554225,1.438028 -0.758505,2.614595 -0.453956,2.614595 0.30455,0 2.756053,-1.629094 5.447784,-3.620208 z m 68.491166,2.20003 c 0.67851,-0.325077 1.42325,-1.315091 1.655,-2.20003 0.30875,-1.179057 1.28682,-1.608981 3.6604,-1.608981 3.53714,0 4.41284,-1.690434 1.56426,-3.019586 -1.22288,-0.570592 -2.81936,-0.206931 -5.91621,1.347643 -2.33277,1.171013 -4.88259,1.947106 -5.66627,1.724654 -1.98182,-0.562551 -1.78626,1.576269 0.28416,3.107787 1.90234,1.407197 2.61639,1.511995 4.41866,0.648513 z M 50.248151,42.077873 c 1.677678,-1.188958 3.050323,-2.422138 3.050323,-2.740402 0,-0.730403 -4.4445,0.0474 -6.253518,1.094389 -1.965312,1.137444 -1.752418,-0.58094 0.222156,-1.79315 1.092128,-0.670467 3.709126,-0.802434 8.455945,-0.426407 5.924586,0.469327 7.244839,0.322633 9.55612,-1.061791 l 2.681793,-1.606353 -5.428003,0.358782 c -15.585498,1.030173 -17.391255,1.658025 -17.391255,6.046845 0,2.856101 1.214102,2.886554 5.106439,0.128087 z m 91.516399,-2.883194 c -2.41195,-1.871221 -5.51895,-4.669293 -6.90445,-6.217937 -1.38549,-1.548645 -3.7862,-3.900466 -5.33491,-5.226268 l -2.81584,-2.410549 3.11196,2.008304 c 1.71157,1.104567 4.97905,4.030835 7.26106,6.502815 4.62063,5.005297 9.74699,8.138115 9.74699,5.956577 0,-2.704114 -3.19573,-6.597143 -8.30348,-10.115271 -5.3375,-3.676385 -14.17231,-6.892581 -16.90262,-6.153175 -0.81692,0.221235 -0.14601,0.644338 1.55149,0.978439 1.64494,0.323755 2.99081,1.048103 2.99081,1.609663 0,0.56156 0.75485,1.484427 1.67745,2.050816 1.13321,0.695691 1.31982,1.294339 0.57517,1.845166 -0.74465,0.550828 -0.38369,1.35797 1.11255,2.487793 1.21816,0.919834 3.77341,3.48008 5.67835,5.689437 2.55753,2.966251 4.31697,4.136937 6.72622,4.475492 1.79449,0.252166 3.47689,0.337532 3.73866,0.1897 0.26178,-0.147831 -1.49746,-1.799781 -3.90941,-3.671002 z M 10.883308,40.974171 c 0,-0.911053 -0.489405,-1.432719 -1.0875683,-1.159258 -0.5981628,0.273462 -1.0875686,1.018869 -1.0875686,1.65646 0,0.637593 0.4894058,1.159258 1.0875686,1.159258 0.5981633,0 1.0875683,-0.745407 1.0875683,-1.65646 z m 6.254273,0.248054 c 0.305965,-0.679742 -0.194041,-0.826621 -1.54123,-0.452743 -1.765729,0.490034 -1.820668,0.395729 -0.479683,-0.823384 2.006631,-1.824262 0.556738,-2.812539 -1.689053,-1.151293 -0.992479,0.734152 -1.454906,1.874484 -1.064962,2.626165 0.772603,1.489321 4.077004,1.351784 4.774928,-0.198745 z M 98.77108,38.837779 C 97.745737,37.251493 95.896368,36.270465 92.439765,35.479225 84.797931,33.72996 79.011716,31.965911 77.139342,30.814571 76.194998,30.233885 75.12968,29.758779 74.771969,29.758779 c -0.874189,0 -4.205441,4.996697 -3.619979,5.429771 0.25402,0.187903 4.276055,0.691922 8.937857,1.120044 9.114333,0.837023 14.261816,2.266381 17.400346,4.831739 2.465566,2.015294 3.208547,0.679689 1.280887,-2.302554 z m 9.51363,0.234053 c 1.84767,-1.002409 2.37007,-0.977311 4.18637,0.201121 1.97209,1.279527 2.01638,1.266478 0.89086,-0.262531 -0.91736,-1.246236 -2.30422,-1.608981 -6.1515,-1.608981 -4.72924,0 -6.8242,1.324116 -3.61193,2.282919 2.14566,0.640439 2.45,0.600658 4.6862,-0.612528 z m 13.82006,-0.775749 c -0.27305,-1.056593 0.0478,-2.67333 0.71299,-3.592748 1.02734,-1.419954 0.79537,-1.87237 -1.54057,-3.00455 -1.85254,-0.897892 -3.85872,-1.168855 -6.14728,-0.830277 -4.67815,0.692099 -10.89492,-0.693032 -13.96694,-3.111917 -2.867685,-2.257982 -5.691445,-2.831565 -2.963758,-0.602019 0.954318,0.780036 2.365998,3.16308 3.137078,5.295652 1.37789,3.810821 1.46771,3.871571 5.23074,3.537747 3.65354,-0.32411 11.13845,1.759969 12.59895,3.508018 1.30581,1.5629 3.42877,0.696095 2.93879,-1.199906 z M 44.070249,37.651168 c 2.383792,-0.968824 6.536494,-1.984687 9.228225,-2.257467 L 58.192532,34.897732 54.11415,33.38599 c -3.873382,-1.435755 -4.256047,-1.443038 -7.612978,-0.144893 -8.629197,3.336964 -12.611707,5.222613 -11.994487,5.67918 1.329987,0.983812 5.324532,0.453726 9.563564,-1.269109 z m 83.182881,0.554763 c 0.74465,-0.663704 2.02809,-1.206736 2.85209,-1.206736 1.79399,0 1.85662,-0.414845 0.37235,-2.466361 -1.43053,-1.977238 -3.45764,-1.978883 -5.87283,-0.0048 -1.21233,0.990934 -1.63962,2.153377 -1.18284,3.217964 0.84699,1.974008 1.97989,2.110002 3.83123,0.459898 z M 15.466351,30.640492 c 3.017029,-1.33077 5.494141,-1.737884 9.788115,-1.608683 3.161871,0.09515 7.126582,-0.245406 8.81047,-0.756764 4.632479,-1.406775 6.145732,-1.077813 1.997225,0.434172 -3.515363,1.281227 -7.818431,6.114585 -6.386641,7.173701 1.618491,1.197223 6.511916,0.341834 11.447849,-2.001124 6.167078,-2.927351 9.552945,-3.125851 15.43781,-0.905052 6.232123,2.351844 10.121204,2.102266 13.497926,-0.866215 2.849971,-2.505414 3.6874,-4.765221 1.765874,-4.765221 -0.577348,0 -2.721932,1.086062 -4.765741,2.413473 -2.227708,1.446849 -4.930043,2.413472 -6.747208,2.413472 -1.667155,0 -5.63273,-1.086062 -8.812388,-2.413472 -3.179658,-1.327411 -7.012124,-2.413473 -8.516592,-2.413473 -5.861798,0 -0.832835,-3.932705 5.880737,-4.598803 2.737438,-0.2716 4.434687,-0.861298 4.434687,-1.540805 0,-1.820129 -4.309135,-4.436127 -6.86418,-4.16712 -1.905235,0.200592 -2.380151,0.786187 -2.380151,2.934843 0,1.943551 -0.84203,3.220015 -3.05146,4.625823 -2.77652,1.766634 -4.011203,1.941571 -13.703319,1.941571 -10.03153,0 -10.9058,0.136073 -15.01234,2.33655 -3.9747076,2.129835 -9.0166945,6.928288 -9.0166945,8.58118 0,0.369424 1.8352724,-0.612636 4.0783817,-2.182355 2.243109,-1.569721 5.8960468,-3.655784 8.1176398,-4.635698 z m 84.453852,2.610406 c -2.244159,-2.000224 -6.569885,-2.844911 -11.67885,-2.280536 -5.704292,0.630139 -4.903405,1.397602 3.251625,3.115924 3.361181,0.708226 6.787021,1.894108 7.612979,2.635295 1.378123,1.236683 1.530993,1.200595 1.857123,-0.438404 0.19546,-0.982308 -0.27384,-2.346833 -1.042877,-3.032279 z M 66.748404,28.35092 c 4.346324,-2.596795 4.733287,-3.053846 2.779225,-3.28261 -1.248577,-0.146174 -3.097419,0.288037 -4.108537,0.964914 -1.249697,0.836588 -2.352842,0.990043 -3.44491,0.479211 -2.380267,-1.113409 -3.800995,-0.947541 -6.651979,0.776609 l -2.567513,1.552721 3.806489,1.231508 c 5.012184,1.621584 4.423922,1.721043 10.187225,-1.722353 z m 12.924898,1.78065 c -2.613804,-1.354256 -5.038089,-6.68235 -3.973878,-8.733794 0.400471,-0.771975 0.110587,-1.292886 -0.719481,-1.292886 -0.764601,0 -2.244467,-0.571887 -3.288591,-1.270858 -1.357737,-0.908914 -2.466225,-1.054436 -3.892125,-0.510955 -2.724048,1.038268 -4.565938,0.432136 -9.327983,-3.069665 -2.23936,-1.646728 -5.542848,-3.444853 -7.341087,-3.995833 -1.798239,-0.55098 -3.269525,-1.3642098 -3.269525,-1.8071778 0,-0.4503741 -0.719105,-0.3639304 -1.631353,0.1961071 -0.897244,0.5508267 -1.631352,1.8378307 -1.631352,2.8600107 0,1.151959 -0.826924,2.052651 -2.175137,2.369179 -1.196325,0.280869 -2.175136,0.89052 -2.175136,1.354778 0,0.512982 0.959916,0.613822 2.447029,0.257062 6.151917,-1.475851 9.903002,-0.230233 12.350753,4.101298 0.800393,1.416375 2.934279,3.041247 4.935497,3.758192 3.066389,1.098549 3.812895,1.1141 5.732692,0.119421 1.21397,-0.628978 2.916247,-1.143597 3.782837,-1.143597 2.244161,0 5.553379,2.412777 5.553379,4.049015 0,1.342563 3.80155,3.867911 5.951724,3.953696 0.581717,0.02321 -0.016,-0.514089 -1.328263,-1.193993 z m 19.303042,-0.434676 c 0,-0.476506 -1.43057,-1.924588 -3.179045,-3.217963 -2.80933,-2.078104 -3.940202,-2.351589 -9.723931,-2.351589 -3.599685,0 -6.847353,-0.36202 -7.217037,-0.80449 -1.477074,-1.767887 -2.516148,-0.673112 -1.601123,1.686951 1.614402,4.163925 2.79905,4.663342 11.757774,4.956767 4.582605,0.150096 8.699065,0.345756 9.147687,0.4348 0.448621,0.08904 0.815675,-0.227969 0.815675,-0.704476 z m 27.499376,0.195456 c 1.5993,-0.25016 -1.45211,-3.331027 -4.42078,-4.463463 -3.65086,-1.392664 -21.45328,-2.596014 -22.359489,-1.511384 -0.906003,1.084381 4.910899,5.002102 8.431089,5.678385 2.51666,0.48349 15.78317,0.697834 18.34918,0.296462 z m -71.354322,-4.123763 2.709789,-1.576719 -2.664093,-0.494606 c -1.465252,-0.272034 -4.794677,-0.07023 -7.398722,0.448457 -4.734361,0.943012 -4.734477,0.943128 -2.049292,2.042819 3.734318,1.529353 6.24491,1.417218 9.402318,-0.419951 z M 40.43017,23.546322 c 3.194271,-2.364078 2.020041,-3.014414 -5.420971,-3.002353 -4.503459,0.0073 -7.43549,0.535137 -10.803178,1.944836 -2.542191,1.064149 -4.622166,2.190322 -4.622166,2.502604 0,0.312283 4.146919,0.517137 9.215375,0.455229 7.955707,-0.09717 9.545565,-0.356931 11.63094,-1.900316 z m 75.1316,-0.756269 c -0.74771,-0.223175 -1.97121,-0.223175 -2.71892,0 -0.7477,0.223176 -0.13595,0.405774 1.35946,0.405774 1.4954,0 2.10716,-0.182598 1.35946,-0.405774 z M 36.711633,19.484679 c 3.85119,0.236244 5.643503,0.06368 5.384925,-0.518457 -0.737645,-1.660661 -10.131399,-1.465269 -14.831693,0.308503 -5.531568,2.087473 -5.761824,2.772289 -0.37202,1.106448 2.628227,-0.812314 6.069309,-1.126497 9.818788,-0.896494 z m 48.0797,-2.368529 c 1.522528,-3.257883 1.48307,-3.471029 -1.005255,-5.430313 -1.42449,-1.12163 -2.912511,-2.0393287 -3.306712,-2.0393287 -0.394201,0 -0.716729,1.6411617 -0.716729,3.6470257 0,2.005863 -0.570973,4.069382 -1.268829,4.585597 -2.32313,1.718453 -1.46564,3.153872 1.721983,2.882562 2.422328,-0.206174 3.292033,-0.899105 4.575542,-3.645543 z m 10.954842,1.379756 c 4.215699,0 5.571935,-0.336084 6.492885,-1.608981 0.86979,-1.202198 2.27717,-1.608981 5.56673,-1.608981 3.04563,0 4.259,-0.30996 3.9366,-1.005613 -0.51875,-1.11938 -3.86673,-1.12774 -12.766046,-0.03188 -6.75599,0.831933 -9.424382,1.735767 -12.467153,4.222855 l -2.110917,1.725414 3.009562,-0.846407 c 1.65526,-0.465524 5.407512,-0.846408 8.338339,-0.846407 z M 65.200439,15.214277 c -2.56001,-2.659427 -4.480446,-3.509333 -6.695512,-2.963161 -0.884457,0.218082 -0.01748,1.270702 2.381635,2.891606 4.983893,3.367245 7.526971,3.409428 4.313877,0.07156 z m 31.475545,-1.601858 c 2.162443,-0.0311 4.855946,-0.324936 5.985556,-0.652971 1.79304,-0.520693 1.45511,-0.922137 -2.66128,-3.1614202 C 97.406937,8.3872815 94.1706,7.233036 92.808394,7.233036 c -2.96799,0 -5.795301,3.541325 -5.795301,7.258856 v 2.511814 l 2.865589,-1.667372 c 1.62664,-0.946477 4.56548,-1.691819 6.797302,-1.723915 z M 87.430732,9.0431404 C 87.799963,8.2688179 88.360629,7.2417911 88.676658,6.760858 88.992687,6.2799249 87.31475,5.3237462 84.947909,4.6360176 80.786375,3.4268077 80.566543,3.4470325 78.277043,5.2497632 c -2.67494,2.106223 -2.075799,3.5862984 1.459148,3.6045736 1.310564,0.0068 3.116953,0.3632526 4.014197,0.7921715 2.301543,1.1002297 2.916032,0.9994897 3.680344,-0.6033679 z M -3.5269726,68.624273 c -1.18467,-0.229007 -1.9032405,-1.142034 -1.9032405,-2.418277 0,-1.945489 0.1251544,-1.988992 2.4470248,-0.850505 1.3458656,0.659922 2.60526534,1.790142 2.79866624,2.511598 0.35766239,1.334217 0.028433,1.4088 -3.34245054,0.757184 z M 136.49746,25.211075 c -2.99081,-2.019111 -4.45903,-3.299676 -3.2627,-2.845697 2.0334,0.77163 10.24816,6.631789 9.18578,6.552859 -0.26688,-0.01982 -2.93227,-1.688052 -5.92308,-3.707162 z m -9.24433,-4.301695 c -0.89725,-0.42892 -1.14195,-0.779853 -0.54378,-0.779853 0.59816,0 1.82167,0.350933 2.71891,0.779853 0.89725,0.428918 1.14195,0.779853 0.54379,0.779853 -0.59816,0 -1.82168,-0.350935 -2.71892,-0.779853 z m 30.30957,-9.65389 c 1.27584,-5.8959727 1.91778,-7.2404176 3.45712,-7.2404176 2.23785,0 3.22888,1.59674 3.16158,5.0938642 l -0.0491,2.5487994 -1.40727,-2.413473 c -1.2637,-2.1672566 -1.47713,-2.2493285 -2.09216,-0.8044906 -0.37669,0.8849397 -0.82251,3.5080406 -0.99071,5.8291156 -0.22888,3.158506 -0.72598,4.220999 -1.97605,4.223577 -1.49429,0.0031 -1.50519,-0.759277 -0.10346,-7.236975 z"
       id="path1" /></g></svg>
