<?xml version="1.0" encoding="UTF-8" standalone="no"?>
<!-- Created with Inkscape (http://www.inkscape.org/) -->

<svg
   width="32mm"
   height="32mm"
   viewBox="0 0 32 32"
   version="1.1"
   id="svg1"
   xml:space="preserve"
   inkscape:export-filename="logo.svg"
   inkscape:export-xdpi="96"
   inkscape:export-ydpi="96"
   xmlns:inkscape="http://www.inkscape.org/namespaces/inkscape"
   xmlns:sodipodi="http://sodipodi.sourceforge.net/DTD/sodipodi-0.dtd"
   xmlns="http://www.w3.org/2000/svg"
   xmlns:svg="http://www.w3.org/2000/svg"><sodipodi:namedview
     id="namedview1"
     pagecolor="#505050"
     bordercolor="#eeeeee"
     borderopacity="1"
     inkscape:showpageshadow="0"
     inkscape:pageopacity="0"
     inkscape:pagecheckerboard="0"
     inkscape:deskcolor="#505050"
     inkscape:document-units="mm" /><defs
     id="defs1" /><g
     inkscape:label="Layer 1"
     inkscape:groupmode="layer"
     id="layer1"><path
       style="fill:#000000"
       d="m 26.480235,30.506714 c -0.243629,-0.127689 -1.136265,-1.005449 -2.716824,-2.671548 -1.294688,-1.364757 -2.383222,-2.480869 -2.418965,-2.48025 -0.03574,6.2e-4 -0.33712,0.197141 -0.669728,0.436713 -0.772794,0.556632 -1.858212,1.121362 -2.78181,1.447341 C 14.078387,28.585288 10.072171,27.851551 6.9325684,25.231589 4.573007,23.262562 2.9195628,20.179484 2.5240037,17.011202 2.4053103,16.060512 2.4786016,13.730941 2.6545178,12.862798 3.5491145,8.4479837 6.5526865,4.824327 10.466357,3.4382125 11.729729,2.9907609 12.620428,2.8424326 14.062879,2.839283 c 1.514224,-0.00331 2.339555,0.1301646 3.720105,0.6016075 4.125144,1.4086927 7.18552,5.1921966 7.934692,9.8095595 0.201865,1.244148 0.185702,3.250906 -0.03577,4.441764 -0.28994,1.55898 -0.927954,3.269397 -1.620929,4.345462 -0.13288,0.206339 -0.241254,0.445707 -0.24083,0.53193 4.38e-4,0.08925 0.964806,1.195612 2.239129,2.568822 1.231098,1.326629 2.358496,2.605879 2.505329,2.842777 0.242926,0.391934 0.264278,0.478307 0.237087,0.959087 -0.07297,1.290215 -1.286331,2.108942 -2.321453,1.566422 z m -10.440792,-5.75266 c 3.021753,-0.638165 5.688396,-3.236324 6.678729,-6.507208 0.702546,-2.320375 0.537159,-4.776225 -0.470655,-6.988797 C 21.069561,8.6719422 19.004998,6.8033345 16.55018,6.1014681 15.372812,5.7648425 14.304282,5.661799 13.293117,5.787374 9.476824,6.2613135 6.3790358,9.1207445 5.441247,13.035088 c -0.2547486,1.063324 -0.3098758,2.646717 -0.1317677,3.784703 0.3401264,2.17317 1.1573244,3.893476 2.5398174,5.346642 2.1854373,2.297156 5.1421853,3.231321 8.1901463,2.587621 z"
       id="path1" /></g></svg>
