<?xml version="1.0" encoding="UTF-8" standalone="no"?>
<!-- Created with Inkscape (http://www.inkscape.org/) -->

<svg
   width="28"
   height="28"
   viewBox="0 0 28 28"
   version="1.1"
   id="svg1"
   xml:space="preserve"
   inkscape:export-filename="show"
   inkscape:export-xdpi="96"
   inkscape:export-ydpi="96"
   sodipodi:docname="icon1.svg"
   xmlns:inkscape="http://www.inkscape.org/namespaces/inkscape"
   xmlns:sodipodi="http://sodipodi.sourceforge.net/DTD/sodipodi-0.dtd"
   xmlns="http://www.w3.org/2000/svg"
   xmlns:svg="http://www.w3.org/2000/svg"><sodipodi:namedview
     id="namedview1"
     pagecolor="#505050"
     bordercolor="#eeeeee"
     borderopacity="1"
     inkscape:showpageshadow="0"
     inkscape:pageopacity="0"
     inkscape:pagecheckerboard="0"
     inkscape:deskcolor="#505050"
     inkscape:document-units="px" /><defs
     id="defs1" /><g
     inkscape:label="Layer 1"
     inkscape:groupmode="layer"
     id="layer1"><path
       style="fill:#000000;stroke-width:1.0901"
       d="M 52.628328,20.933879 C 45.268519,13.026611 35.206763,2.2466154 34.873156,1.9112893 34.689616,1.7268029 34.730383,1.5420499 35.101363,0.87712381 35.349782,0.43187018 35.615134,0.06397411 35.691034,0.05957693 35.8078,0.0528603 59.484314,25.245801 60.124424,26.057922 c 0.185073,0.234806 0.14599,0.407507 -0.241894,1.068902 -0.254448,0.433868 -0.535201,0.781751 -0.623895,0.773075 -0.08869,-0.0086 -3.072333,-3.143385 -6.630307,-6.96602 z M 12.008694,25.032267 C 8.4442601,24.41627 5.0318249,22.080169 2.5921268,18.585831 1.4496044,16.949415 0.15589266,14.505514 0.15589266,13.983634 c 0,-0.52188 1.29371174,-2.965782 2.43623414,-4.6021972 C 7.2832273,2.6624524 14.66773,0.88475821 20.878137,4.9793881 c 2.446569,1.6130665 4.773922,4.3777341 6.270476,7.4487139 l 0.73883,1.516102 -0.351474,0.787623 c -1.114914,2.498433 -3.097583,5.315724 -4.85317,6.896153 -2.022806,1.820988 -4.431411,2.993424 -7.041466,3.427576 -1.542922,0.256648 -2.030906,0.253519 -3.632639,-0.02329 z m 4.482083,-3.435793 c 1.481408,-0.957866 2.267601,-1.99975 2.971809,-3.938322 0.569923,-1.568911 0.609239,-1.806032 0.609239,-3.674518 0,-1.868486 -0.03932,-2.105607 -0.609239,-3.674518 C 18.760617,8.3767098 17.97229,7.3288109 16.508113,6.3818293 11.314242,3.0226098 5.9133747,10.648861 8.4637044,17.740869 c 1.4388154,4.00109 5.0898636,5.754779 8.0270726,3.855605 z m -3.756402,-2.561735 c -1.600668,-0.704609 -2.650571,-2.701302 -2.655977,-5.051105 -0.0096,-4.1666521 3.36435,-6.7165298 5.94309,-4.4915361 1.880092,1.6221831 2.401743,4.9118521 1.173072,7.3976831 -0.991757,2.006509 -2.799623,2.875933 -4.460185,2.144958 z m 32.897571,5.988242 c -2.97448,-0.436487 -6.458763,-2.602163 -8.737679,-5.430951 -1.223442,-1.518645 -2.970886,-4.52901 -3.130163,-5.392408 -0.168189,-0.911721 2.042693,-4.7825066 3.842318,-6.7270844 l 0.602026,-0.6505157 1.788621,1.9157341 c 1.4951,1.601352 1.772343,1.990952 1.689426,2.374092 -0.05455,0.252097 -0.180288,1.016247 -0.2794,1.698112 -0.340648,2.343558 0.359327,5.158288 1.754986,7.057122 1.947981,2.650285 4.878035,3.252703 7.241894,1.488931 l 0.79153,-0.590592 1.257268,1.314792 c 1.244128,1.301052 1.253171,1.317714 0.865285,1.59422 -0.940216,0.670236 -5.038965,1.729954 -6.107446,1.57906 -0.114364,-0.01616 -0.824764,-0.119882 -1.578666,-0.230512 z m 9.353231,-5.787839 c -0.931293,-1.01507 -1.690592,-1.920798 -1.687334,-2.012727 0.0033,-0.09193 0.102566,-0.757488 0.220687,-1.479014 C 53.803734,14.001246 53.646517,12.137436 53.074582,10.4804 52.49257,8.7941689 51.901101,7.8480827 50.86539,6.9466845 48.990023,5.3145149 46.892404,5.1334236 44.831591,6.4257772 L 43.726064,7.1190621 42.50741,5.836442 C 41.321226,4.587994 41.298736,4.5467068 41.663306,4.286823 42.342958,3.8023309 44.330045,3.1502782 45.931672,2.8861808 51.477325,1.9717378 57.432439,5.7845058 60.6455,12.306724 l 0.795172,1.614125 -0.350753,0.799301 c -0.683488,1.557536 -1.654149,3.140326 -2.917254,4.756958 -0.703505,0.900408 -1.327504,1.629569 -1.386665,1.62036 -0.05916,-0.0091 -0.869532,-0.847255 -1.800823,-1.862326 z M 46.33615,19.045927 c -0.366591,-0.156041 -0.917289,-0.543934 -1.223776,-0.861983 -0.99092,-1.028304 -1.789459,-3.709217 -1.462743,-4.910831 0.121313,-0.446174 0.313608,-0.283726 2.787513,2.35485 1.461466,1.558745 2.679347,2.92444 2.706405,3.034877 0.05492,0.224126 -1.191297,0.704258 -1.768809,0.681476 -0.204634,-0.0081 -0.672,-0.142347 -1.03859,-0.298389 z m 2.198523,-6.754917 c -1.463458,-1.569557 -2.68367,-2.9360076 -2.711579,-3.036558 -0.08817,-0.3176535 1.309335,-0.6985519 2.098174,-0.5718675 1.338896,0.2150225 2.456874,1.2625065 3.065001,2.8717405 0.347646,0.919943 0.585724,3.278774 0.350575,3.473428 -0.07774,0.06434 -1.338713,-1.167185 -2.802171,-2.736743 z"
       id="path1" /></g></svg>
